<svg xmlns="http://www.w3.org/2000/svg" xmlns:xlink="http://www.w3.org/1999/xlink" version="1.1" x="0px" y="0px" viewBox="0 0 90 112.5" enable-background="new 0 0 90 90" xml:space="preserve"><path d="M45.7,84.3c-0.7,0.6-2,1.1-3.7,1.1s-3-0.5-3.7-1.1H45.7 M47.3,83.3H36.8c0,1.7,2.3,3.1,5.3,3.1S47.3,85,47.3,83.3L47.3,83.3  z"/><path d="M42,3.3c18.3,0,21.5,17,21.6,17.7c0,0.1,1,6.3-1.9,11.8c-0.5,0.9-1.2,2.3-2.1,3.9c-3.3,6-6,11.1-6.6,12.7  c-0.6,1.5-0.9,5.5-0.8,12.1l0,0.3c0,0.1,0,0.2-0.1,0.3c-0.4,0.7-1.1,1-1.9,1H34.1c-0.8,0-1.5-0.4-1.9-1.1C32,62.1,32,62,32,61.9  c0-3.7-0.1-10.3-0.8-12.4c-0.7-1.7-4.1-8.1-6.7-12.8c-0.8-1.6-1.6-2.9-2-3.8c-2.9-5.6-1.9-11.8-1.9-11.8C20.7,20.3,23.8,3.3,42,3.3   M42,2.3c-19.3,0-22.4,18.6-22.4,18.6s-1.1,6.5,2,12.5c1.8,3.4,7.8,14.3,8.6,16.5C31,52,31,60.6,31,61.9c0,0.3,0.1,0.6,0.3,0.9  c0.6,1,1.6,1.5,2.8,1.5h16.1c1.1,0,2.2-0.6,2.8-1.5c0.2-0.3,0.3-0.6,0.3-0.9c0-1.1-0.1-9.9,0.8-12.1c0.8-2.2,6.8-13,8.6-16.5  c3.1-5.8,2-12.5,2-12.5S61.4,2.3,42,2.3L42,2.3z"/><g><rect x="19.2" y="44.2" transform="matrix(0.131 0.9914 -0.9914 0.131 77.6503 0.8731)" width="38.2" height="1"/></g><g><rect x="46.1" y="25.6" transform="matrix(0.9914 0.1309 -0.1309 0.9914 6.2549 -5.7109)" width="1" height="38.2"/></g><circle cx="35.8" cy="26" r="1.5"/><circle cx="49.2" cy="26" r="1.5"/><g><path d="M49.1,27.2c-0.4,0-0.5-0.5-0.6-1.2c0-0.2-0.1-0.4-0.1-0.6c0,0.2-0.1,0.4-0.1,0.6c-0.1,0.7-0.2,1.2-0.6,1.2S47.1,26.6,47,26   c0-0.2-0.1-0.4-0.1-0.6c0,0.2-0.1,0.4-0.1,0.6c-0.1,0.7-0.2,1.2-0.6,1.2c-0.4,0-0.5-0.5-0.6-1.2c0-0.2-0.1-0.4-0.1-0.6   c0,0.2-0.1,0.4-0.1,0.6c-0.1,0.7-0.2,1.2-0.6,1.2c-0.4,0-0.5-0.5-0.6-1.2c0-0.2-0.1-0.4-0.1-0.6c0,0.2-0.1,0.4-0.1,0.6   c-0.1,0.7-0.2,1.2-0.6,1.2s-0.5-0.5-0.6-1.2c0-0.2-0.1-0.4-0.1-0.6c0,0.2-0.1,0.4-0.1,0.6c-0.1,0.7-0.2,1.2-0.6,1.2   c-0.4,0-0.5-0.5-0.6-1.2c0-0.2-0.1-0.4-0.1-0.6c0,0.2-0.1,0.4-0.1,0.6c-0.1,0.7-0.2,1.2-0.6,1.2s-0.5-0.5-0.6-1.2   c0-0.2-0.1-0.4-0.1-0.6c0,0.2-0.1,0.4-0.1,0.6c-0.1,0.7-0.2,1.2-0.6,1.2c-0.4,0-0.5-0.5-0.6-1.2c0-0.2-0.1-0.4-0.1-0.6   c0,0.2-0.1,0.4-0.1,0.6c-0.1,0.7-0.2,1.2-0.6,1.2s-0.5-0.5-0.6-1.2c0-0.2-0.1-0.4-0.1-0.6c0,0.2-0.1,0.4-0.1,0.6   c-0.1,0.7-0.2,1.2-0.6,1.2v-0.5c0,0-0.1,0-0.1,0c0.1-0.1,0.2-0.6,0.2-0.8c0.1-0.7,0.2-1.2,0.6-1.2c0.4,0,0.5,0.5,0.6,1.2   c0,0.2,0.1,0.4,0.1,0.6c0-0.2,0.1-0.4,0.1-0.6c0.1-0.7,0.2-1.2,0.6-1.2s0.5,0.5,0.6,1.2c0,0.2,0.1,0.4,0.1,0.6   c0-0.2,0.1-0.4,0.1-0.6c0.1-0.7,0.2-1.2,0.6-1.2c0.4,0,0.5,0.5,0.6,1.2c0,0.2,0.1,0.4,0.1,0.6c0-0.2,0.1-0.4,0.1-0.6   c0.1-0.7,0.2-1.2,0.6-1.2c0.4,0,0.5,0.5,0.6,1.2c0,0.2,0.1,0.4,0.1,0.6c0-0.2,0.1-0.4,0.1-0.6c0.1-0.7,0.2-1.2,0.6-1.2   c0.4,0,0.5,0.5,0.6,1.2c0,0.2,0.1,0.4,0.1,0.6c0-0.2,0.1-0.4,0.1-0.6c0.1-0.7,0.2-1.2,0.6-1.2c0.4,0,0.5,0.5,0.6,1.2   c0,0.2,0.1,0.4,0.1,0.6c0-0.2,0.1-0.4,0.1-0.6c0.1-0.7,0.2-1.2,0.6-1.2s0.5,0.5,0.6,1.2c0,0.2,0.1,0.4,0.1,0.6   c0-0.2,0.1-0.4,0.1-0.6c0.1-0.7,0.2-1.2,0.6-1.2c0.4,0,0.5,0.5,0.6,1.2c0,0.2,0.1,0.4,0.1,0.6c0-0.2,0.1-0.4,0.1-0.6   c0.1-0.7,0.2-1.2,0.6-1.2c0.4,0,0.5,0.5,0.6,1.2c0.1,0.3,0.1,0.7,0.2,0.8c0,0,0,0-0.1,0V27.2z"/></g><path d="M50.5,66.2c0.2,0,0.3,0.1,0.3,0.3v0.2c0,0.2-0.2,0.4-0.4,0.4l-16.9,0.7c-0.2,0-0.3-0.1-0.3-0.3v-0.2c0-0.2,0.2-0.4,0.4-0.4  L50.5,66.2L50.5,66.2 M50.5,65.2C50.4,65.2,50.4,65.2,50.5,65.2l-16.9,0.7c-0.7,0-1.4,0.7-1.4,1.4v0.2c0,0.7,0.6,1.3,1.3,1.3  c0,0,0,0,0.1,0l16.9-0.7c0.7,0,1.4-0.7,1.4-1.4v-0.2C51.7,65.8,51.2,65.2,50.5,65.2L50.5,65.2z"/><path d="M50.5,70.6c0.2,0,0.3,0.1,0.3,0.3v0.2c0,0.2-0.2,0.4-0.4,0.4l-16.9,0.7c-0.2,0-0.3-0.1-0.3-0.3v-0.2c0-0.2,0.2-0.4,0.4-0.4  L50.5,70.6L50.5,70.6 M50.5,69.6C50.4,69.6,50.4,69.6,50.5,69.6l-16.9,0.7c-0.7,0-1.4,0.7-1.4,1.4v0.2c0,0.7,0.6,1.3,1.3,1.3  c0,0,0,0,0.1,0l16.9-0.7c0.7,0,1.4-0.7,1.4-1.4v-0.2C51.7,70.1,51.2,69.6,50.5,69.6L50.5,69.6z"/><path d="M50.5,74.9c0.2,0,0.3,0.1,0.3,0.3v0.2c0,0.2-0.2,0.4-0.4,0.4l-16.9,0.7c-0.2,0-0.3-0.1-0.3-0.3V76c0-0.2,0.2-0.4,0.4-0.4  L50.5,74.9L50.5,74.9 M50.5,73.9C50.4,73.9,50.4,73.9,50.5,73.9l-16.9,0.7c-0.7,0-1.4,0.7-1.4,1.4v0.2c0,0.7,0.6,1.3,1.3,1.3  c0,0,0,0,0.1,0l16.9-0.7c0.7,0,1.4-0.7,1.4-1.4v-0.2C51.7,74.5,51.2,73.9,50.5,73.9L50.5,73.9z"/><path d="M50.5,79.2c0.2,0,0.3,0.1,0.3,0.3v0.2c0,0.2-0.2,0.4-0.4,0.4l-16.9,0.7c-0.2,0-0.3-0.1-0.3-0.3v-0.2c0-0.2,0.2-0.4,0.4-0.4  L50.5,79.2L50.5,79.2 M50.5,78.2C50.4,78.2,50.4,78.2,50.5,78.2l-16.9,0.7c-0.7,0-1.4,0.7-1.4,1.4v0.2c0,0.7,0.6,1.3,1.3,1.3  c0,0,0,0,0.1,0l16.9-0.7c0.7,0,1.4-0.7,1.4-1.4v-0.2C51.7,78.8,51.2,78.2,50.5,78.2L50.5,78.2z"/><text x="0" y="105" fill="#000000" font-size="5px" font-weight="bold" font-family="'Helvetica Neue', Helvetica, Arial-Unicode, Arial, Sans-serif">Created by Karsten Barnett</text><text x="0" y="110" fill="#000000" font-size="5px" font-weight="bold" font-family="'Helvetica Neue', Helvetica, Arial-Unicode, Arial, Sans-serif">from the Noun Project</text></svg>