<svg xmlns="http://www.w3.org/2000/svg" xmlns:xlink="http://www.w3.org/1999/xlink" version="1.1" x="0px" y="0px" viewBox="0 0 100 125" enable-background="new 0 0 100 100" xml:space="preserve"><path d="M45.973,40.674c4.17-1.495,7.159-5.471,7.159-10.155c0-5.963-4.834-10.798-10.798-10.798  c-5.963,0-10.797,4.834-10.797,10.798c0,4.684,2.989,8.661,7.159,10.155c-7.229,1.652-12.62,8.103-12.62,15.836v5.879h32.517v-5.879  C58.593,48.777,53.201,42.327,45.973,40.674z M42.334,56.669l-2.3-3.557l1.334-10.178h1.602l1.662,10.427L42.334,56.669z"/><path d="M98.415,88.905L76.054,66.544c4.7-6.694,7.485-14.826,7.485-23.609c0-22.72-18.485-41.205-41.205-41.205  S1.129,20.215,1.129,42.935c0,22.721,18.485,41.206,41.205,41.206c9.646,0,18.51-3.357,25.538-8.931L89.99,97.329L98.415,88.905z   M42.334,74.212c-17.246,0-31.276-14.032-31.276-31.277c0-17.246,14.03-31.276,31.276-31.276c17.246,0,31.276,14.03,31.276,31.276  C73.61,60.18,59.58,74.212,42.334,74.212z"/><text x="0" y="115" fill="#000000" font-size="5px" font-weight="bold" font-family="'Helvetica Neue', Helvetica, Arial-Unicode, Arial, Sans-serif">Created by Aneeque Ahmed</text><text x="0" y="120" fill="#000000" font-size="5px" font-weight="bold" font-family="'Helvetica Neue', Helvetica, Arial-Unicode, Arial, Sans-serif">from the Noun Project</text></svg>